<?xml version="1.0" encoding="UTF-8" standalone="no"?>
<!-- Created with Inkscape (http://www.inkscape.org/) -->

<svg
   version="1.1"
   id="svg1"
   width="3758.7876"
   height="1787.0845"
   viewBox="0 0 3758.7876 1787.0845"
   xmlns="http://www.w3.org/2000/svg"
   xmlns:svg="http://www.w3.org/2000/svg">
  <defs
     id="defs1" />
  <g
     id="g1"
     transform="translate(-204.10619,-1189.9578)">
    <path
       style="display:inline;fill:#ffffff"
       d="m 360.40185,2966.5189 c -32.49965,-18.0431 -62.23764,-36.5936 -88.14464,-54.9846 l -13.17937,-9.3559 -7.96292,-15.9215 c -26.37655,-52.7386 -41.47483,-113.1526 -46.26195,-185.1117 -1.50134,-22.5679 -0.60933,-86.5053 1.5207,-109 8.93494,-94.3594 31.94323,-192.9017 66.07663,-283 2.60456,-6.875 4.79198,-12.5606 4.86093,-12.6347 0.0689,-0.074 3.95035,0.4997 8.62535,1.2751 10.22364,1.6958 32.94865,1.93 42.14828,0.4345 26.87308,-4.3686 51.75823,-18.4118 70.11362,-39.5665 25.2961,-29.1539 44.25301,-72.3646 57.22045,-130.4294 21.2229,-95.0305 16.85271,-172.6568 -12.18221,-216.3891 -6.98927,-10.5272 -18.49417,-22.0693 -28.70008,-28.7928 -15.8716,-10.4561 -32.56377,-15.3672 -56.22829,-16.5431 l -13.12823,-0.6524 -4.12231,-13.1008 c -10.33075,-32.8314 -18.23687,-69.9661 -23.01507,-108.1008 -10.26555,-81.929 -4.13781,-152.7766 18.017,-208.3087 22.78967,-57.1234 60.16852,-104.2661 115.37684,-145.5148 23.27886,-17.3926 43.33326,-30.1774 88,-56.1004 40.41635,-23.4562 47.53198,-27.8172 59.5,-36.4658 34.73218,-25.0992 60.35294,-55.0126 77.30058,-90.2519 l 5.11786,-10.6416 12.04078,-1.5805 c 10.43877,-1.3703 23.14301,-2.7109 49.42271,-5.2155 l 6.38193,-0.6082 -0.6846,2.8437 c -1.34552,5.5891 -15.53428,33.026 -22.24553,43.0164 -17.94336,26.7104 -41.55996,49.978 -70.33373,69.2943 -4.675,3.1384 -25.375,15.5167 -46,27.5073 -42.46446,24.6873 -58.41459,34.5489 -78.56321,48.5739 -64.55033,44.9322 -107.15905,96.5673 -131.32007,159.1393 -25.13806,65.1023 -28.35067,154.5014 -9.02903,251.2561 4.76044,23.8383 14.33034,60.1326 18.46416,70.0262 1.47447,3.5289 1.47731,3.5302 8.00098,3.5302 57.09835,0 95.3184,31.6808 109.78342,91 5.05955,20.7486 6.13149,31.9963 6.09941,64 -0.032,31.9117 -1.09035,44.4554 -6.47208,76.7074 -17.95796,107.6195 -54.67445,173.818 -108.3212,195.2992 -20.60553,8.2509 -42.77866,10.26 -71.2503,6.4559 l -5.10792,-0.6825 -7.53009,20.36 c -31.33902,84.735 -53.88616,181.3092 -62.1869,266.36 -4.97527,50.9775 -4.5947,107.1417 1.03334,152.5 6.60399,53.2239 20.56893,102.5163 40.938,144.5 14.84612,30.6 32.18834,56.5624 55.30613,82.7967 5.71742,6.4882 10.21319,11.9788 9.99061,12.2014 -0.22259,0.2226 -8.93908,-4.3334 -19.36998,-10.1244 z m 165.03473,8.7727 c -1.65,-1.0009 -8.95353,-5.0423 -16.23006,-8.9809 -26.1956,-14.1789 -64.33184,-38.0692 -91.38322,-57.2467 l -9.61328,-6.8151 -8.03128,-16.3018 c -24.49332,-49.7165 -38.2867,-100.9177 -44.93565,-166.8019 -2.53555,-25.1247 -2.5281,-96.3229 0.013,-124 8.54727,-93.0959 30.53192,-189.1968 63.94025,-279.5 3.86605,-10.45 7.09427,-19.0926 7.17382,-19.2058 0.0795,-0.1131 3.95205,0.4703 8.60555,1.2965 11.06788,1.965 33.96827,1.9625 44.9609,0 12.89852,-2.3086 25.98703,-7.0989 36.5,-13.3587 43.03095,-25.6223 72.43146,-79.626 89.94767,-165.2183 17.47954,-85.4132 14.92636,-151.5302 -7.58022,-196.2965 -5.17445,-10.2921 -12.54047,-20.112 -21.73524,-28.9757 -18.29197,-17.6335 -39.18894,-25.8739 -69.50014,-27.4063 l -12.86792,-0.6505 -1.48088,-3.5443 c -2.82548,-6.7623 -12.13535,-40.7422 -15.65697,-57.1459 -16.41752,-76.4732 -19.60266,-145.6008 -9.51427,-206.4896 9.09146,-54.8718 32.47184,-105.4368 68.66387,-148.5 11.44984,-13.6236 36.52539,-37.8023 52.14739,-50.2822 25.53307,-20.3975 50.34971,-36.549 104.07671,-67.7364 39.59994,-22.987 46.80424,-27.4476 58.80939,-36.4126 32.09106,-23.9643 56.89468,-53.3436 73.22023,-86.7276 2.63161,-5.3813 4.93901,-10.2135 5.12756,-10.7382 0.56292,-1.5663 66.26547,-9.0137 67.61502,-7.6641 1.71624,1.7162 -12.36913,30.2502 -22.24372,45.0611 -18.25391,27.379 -43.54611,52.0097 -73.03587,71.1257 -6.04594,3.9191 -24.04261,14.6817 -39.99261,23.917 -79.25481,45.8893 -111.18251,68.6673 -144.5,103.09 -50.70638,52.3885 -78.30154,111.0415 -87.68233,186.3673 -2.59134,20.8079 -2.59853,82.3628 -0.0124,106 5.02026,45.8848 14.38892,92.5363 25.40658,126.5129 l 3.88707,11.9871 11.95053,0.7028 c 29.03271,1.7072 47.18435,7.9225 65.1738,22.3158 25.57254,20.4606 40.98955,55.4071 45.36334,102.8274 1.48447,16.0944 0.66092,56.988 -1.52358,75.654 -4.20752,35.9523 -11.97422,73.3559 -21.69896,104.5 -22.80479,73.0337 -59.13169,115.6185 -108.36919,127.0374 -14.08783,3.2672 -33.99325,3.6122 -54.01961,0.9361 l -5.02472,-0.6714 -6.74307,18.1562 c -29.28194,78.8438 -50.79775,166.463 -60.66368,247.0417 -7.08934,57.9013 -7.80025,117.2586 -2.01409,168.1661 10.94313,96.2795 44.01475,174.7818 99.32363,235.7651 4.20566,4.6371 7.64666,8.7996 7.64666,9.25 0,1.0807 -0.0248,1.0734 -3.5,-1.0348 z m 141.56334,-4.2439 c -30.08391,-15.8401 -65.77041,-37.9149 -98.60439,-60.9943 l -11.04106,-7.7608 -9.11556,-18.8237 c -25.10742,-51.847 -37.57456,-99.9779 -44.50667,-171.8237 -1.70862,-17.7085 -1.69629,-88.2764 0.019,-108.5 7.34111,-86.5549 25.03029,-171.0324 53.70984,-256.5 12.36542,-36.85 17.68356,-50.0502 20.06007,-49.7913 1.05351,0.1148 5.51547,0.7214 9.91547,1.3481 11.13835,1.5864 31.3517,1.3523 41.62118,-0.4821 66.58143,-11.8933 110.22927,-79.222 130.86653,-201.8673 5.30002,-31.4975 6.42195,-44.7349 6.45891,-76.2074 0.0359,-30.5528 -0.87551,-40.4334 -5.62668,-61 -6.50118,-28.1419 -20.52528,-53.3582 -37.94651,-68.2304 -17.7149,-15.1229 -38.27525,-22.4956 -67.20038,-24.0971 l -12.14533,-0.6725 -2.76914,-8.3473 c -9.67568,-29.1664 -19.53311,-74.0534 -24.19022,-110.1527 -6.51509,-50.5015 -6.34865,-105.5172 0.44445,-146.9073 13.92524,-84.846 58.01979,-153.7955 134.98715,-211.0758 23.13209,-17.2153 42.75291,-29.5595 96.97778,-61.0129 17.31278,-10.0423 35.31278,-20.8427 40,-24.001 37.83505,-25.493 65.72666,-56.427 83.81483,-92.957 3.68907,-7.4503 6.70739,-13.6124 6.70739,-13.6936 0,-0.8198 67.31152,-7.8742 68.05352,-7.1322 0.2039,0.2039 -1.7574,5.3002 -4.3584,11.3252 -15.2461,35.3161 -42.2996,68.9391 -75.44235,93.7622 -14.51645,10.8725 -19.23713,13.8344 -55.25277,34.6677 -65.97187,38.1614 -95.05356,57.6804 -124.5,83.5617 -56.45332,49.6185 -92.14768,111.7005 -104.90798,182.463 -3.64911,20.2362 -5.21583,37.8348 -5.79783,65.1256 -0.95757,44.9014 3.28587,88.4201 13.26879,136.0787 4.71584,22.5135 13.1157,53.9024 17.09838,63.8938 l 1.43424,3.5981 12.2022,0.6219 c 6.71121,0.342 15.85175,1.3158 20.3123,2.1639 48.21928,9.1681 77.97084,45.5588 87.91811,107.5371 2.24134,13.9651 3.11893,57.3343 1.5452,76.3617 -4.07478,49.2667 -16.57899,105.4817 -32.27969,145.1192 -5.89159,14.8737 -17.94239,37.7351 -25.56551,48.5 -3.70008,5.225 -11.4526,14.2725 -17.22781,20.1055 -18.72538,18.9128 -37.03412,28.833 -61.79059,33.48 -10.45088,1.9617 -32.08488,2.1537 -44.03393,0.3908 -4.76157,-0.7025 -8.69668,-0.8532 -9.19464,-0.3522 -2.65521,2.6716 -20.84363,54.8983 -30.60285,87.8738 -21.87692,73.9202 -35.64879,147.1769 -41.54722,221.0021 -1.89796,23.755 -1.59716,83.5207 0.53598,106.4943 9.10341,98.0419 36.80987,173.4055 86.83569,236.1994 4.39667,5.5188 11.39185,13.5907 15.54484,17.9376 4.15299,4.3469 7.35781,8.0965 7.12183,8.3325 -0.23599,0.236 -5.54877,-2.2666 -11.80617,-5.5613 z M 2111.5792,2620.1015 c -9.4257,-2.7735 -13.0844,-13.9416 -12.9258,-39.4563 0.3261,-52.4724 21.5776,-149.5975 64.7561,-295.9531 6.0547,-20.5226 6.9316,-27.7249 3.5928,-29.5117 -1.0638,-0.5694 -4.6076,-1.0352 -7.875,-1.0352 -13.0297,0 -15.1907,-2.163 -15.1907,-15.2048 0,-9.8817 3.0959,-16.3898 9.8051,-20.612 8.2614,-5.1989 16.0075,-6.7019 24.9214,-4.8355 l 6.2265,1.3037 3.1015,-10.0757 c 1.7059,-5.5416 5.251,-16.8257 7.8782,-25.0757 2.6272,-8.25 4.6489,-15.1556 4.4928,-15.3459 -0.1561,-0.1902 -4.7694,2.8566 -10.2516,6.7707 -34.6652,24.7495 -68.7573,41.3807 -95.7388,46.7043 -13.0112,2.5672 -33.3687,2.3263 -43.9351,-0.52 -27.4452,-7.3928 -48.6727,-27.0143 -64.6796,-59.7863 -2.7906,-5.7134 -5.8724,-10.8155 -6.8484,-11.3378 -4.7505,-2.5424 -15.8206,4.7645 -32.5209,21.4656 -24.4853,24.4864 -56.4526,66.2581 -65.976,86.2111 -3.7573,7.872 -6.9336,10.7691 -14.2065,12.958 -10.1306,3.0489 -20.118,0.3967 -22.194,-5.8938 -1.0373,-3.143 0.1817,-8.7759 12.9261,-59.7287 7.7393,-30.9421 13.8701,-56.4597 13.624,-56.7058 -0.2461,-0.2461 -13.8748,4.9345 -30.2861,11.5124 -76.8346,30.7967 -140.6209,52.758 -187.8386,64.672 -31.8549,8.0376 -43.8175,9.9008 -64,9.9678 -16.2962,0.054 -17.2277,-0.051 -22.5,-2.5464 -11.4105,-5.4 -19.9247,-16.5362 -23.6225,-30.8972 -1.8949,-7.3593 -2.2052,-29.9886 -0.5279,-38.4992 0.5419,-2.7496 0.8477,-5.1369 0.6795,-5.3051 -0.1682,-0.1682 -5.8686,1.8062 -12.6675,4.3875 -52.7799,20.0385 -123.0652,55.8731 -183.8616,93.741 -12.3322,7.6813 -51.7888,33.2249 -52.8464,34.212 -0.1905,0.1778 0.9877,2.2674 2.6182,4.6435 6.7674,9.8621 12.8366,24.4467 15.889,38.1818 2.2639,10.1871 2.2163,31.7258 -0.094,42.6385 -8.2688,39.0531 -35.9675,77.9839 -81.1014,113.9888 -59.6769,47.6063 -143.285,83.0112 -196.0295,83.0112 -17.9605,0 -26.4658,-3.4509 -30.5225,-12.3839 -8.38511,-18.4646 9.786,-53.2718 54.0926,-103.6161 45.6342,-51.8526 129.5878,-128.8005 189.233,-173.4418 7.1108,-5.3221 11.4741,-9.2338 11.0676,-9.922 -3.6182,-6.1266 -20.1953,-30.0648 -28.8329,-41.6362 -20.3303,-27.2356 -36.2178,-46.4679 -85.8684,-103.9468 -15.9409,-18.4543 -35.5645,-41.4494 -43.608,-51.1003 -62.5906,-75.0992 -92.9478,-127.5467 -103.24792,-178.3792 -3.27097,-16.1427 -3.22899,-44.5585 0.0879,-59.4542 14.80572,-66.4916 73.20822,-124.056 181.16312,-178.5632 74.4333,-37.582 132.5853,-57.0456 197.5,-66.104 15.8511,-2.2119 57.7148,-3.0949 71.6303,-1.5108 64.6931,7.3643 101.1474,37.9993 110.5502,92.9025 2.416,14.108 2.1946,42.6042 -0.4677,60.1686 -7.2876,48.079 -24.6263,98.2208 -54.2851,156.9874 -21.4044,42.411 -28.5984,52.6554 -39.6116,56.408 -5.3436,1.8207 -15.8462,2.0982 -20.001,0.5284 -6.0863,-2.2996 -11.4461,-9.6692 -12.6413,-17.3815 -0.5781,-3.73 -0.049,-4.7927 9.7023,-19.5 47.2847,-71.3141 78.7044,-139.5698 88.8676,-193.0549 3.0937,-16.2811 3.055,-42.8506 -0.08,-54.5 -7.9205,-29.437 -29.8254,-49.1932 -62.3109,-56.1986 -12.8956,-2.7809 -51.9097,-2.4909 -72.8533,0.5416 -95.6151,13.8444 -214.4195,58.8388 -284.7514,107.8429 -50.4905,35.1796 -80.1623,75.6655 -87.7236,119.6951 -1.7772,10.3493 -1.9994,32.044 -0.4434,43.2966 1.7772,12.8518 7.3949,32.9231 13.3848,47.8224 19.2999,48.0065 54.9055,98.9802 123.815,177.2558 64.6056,73.3866 75.8266,86.6036 94.02,110.7442 6.6321,8.8 14.936,20.3875 18.4532,25.75 3.5172,5.3625 6.5926,9.75 6.8344,9.75 0.2419,0 11.7957,-7.5734 25.6754,-16.8298 55.146,-36.7774 96.0569,-61.4099 138.2356,-83.232 34.3035,-17.7478 72.1081,-34.0438 99.9746,-43.095 l 13.3716,-4.3432 2.7445,-6.5 c 10.3541,-24.5227 15.5129,-30 28.2551,-30 9.6184,0 16.9472,4.132 20.2579,11.4214 2.924,6.4381 2.403,9.6015 -3.5293,21.4303 -11.2109,22.3538 -21.6641,49.8927 -25.0384,65.9637 -1.7357,8.2666 -2.0214,22.0053 -0.5633,27.0895 2.5099,8.7513 9.5654,14.0984 18.593,14.0911 30.4651,-0.025 122.6078,-30.6671 247.9343,-82.451 11.55,-4.7724 24.1589,-10.2247 28.0198,-12.1164 l 7.0197,-3.4394 6.8733,-27.7446 c 3.7804,-15.2595 7.4678,-28.9285 8.1944,-30.3755 6.42,-12.7859 27.5918,-12.4496 33.4874,0.532 1.0238,2.2544 1.8714,5.6167 1.8834,7.4717 0.012,1.8551 -6.953,26.691 -15.478,55.1911 -8.525,28.5 -15.5,52.0942 -15.5,52.4315 0,0.3374 4.906,-5.3736 10.9022,-12.691 38.0522,-46.4364 64.4437,-59.1231 81.8515,-39.3469 2.1985,2.4976 6.9736,10.6429 10.6113,18.1006 10.7308,21.999 20.8059,36.238 32.5709,46.0319 28.4466,23.6808 61.3407,20.7477 112.5641,-10.037 14.9784,-9.0019 28.7014,-18.2476 50.2174,-33.8334 l 15.2175,-11.0233 7.6682,-23.0981 c 7.0656,-21.283 30.1416,-88.3162 40.9992,-119.0982 7.574,-21.4727 19.1912,-50.1859 25.8941,-64 7.2956,-15.0356 12.6562,-23.6095 18.0149,-28.8138 3.2975,-3.2026 4.4213,-3.6862 8.5654,-3.6862 3.6073,0 5.4819,0.5992 7.6913,2.4582 6.7533,5.6825 11.7663,23.8466 12.8448,46.5418 0.9507,20.0043 -2.0966,57.3739 -4.967,60.9125 -4.3213,5.3272 -20.4392,7.0419 -29.3097,3.118 -5.5354,-2.4486 -8.0028,-4.4853 -9.9162,-8.1854 -1.2619,-2.4403 -0.9592,-3.8419 3.6729,-17.0023 4.8978,-13.9155 10.943,-34.0799 10.8725,-36.2662 -0.019,-0.5921 -2.1876,4.7734 -4.8189,11.9234 -2.6313,7.15 -8.5143,22.225 -13.0734,33.5 -14.6945,36.3408 -30.9541,82.3625 -55.9982,158.5 -15.5494,47.2719 -17.1916,52.5 -16.4921,52.5 0.2614,0 7.9995,-4.0738 17.1962,-9.0529 72.2664,-39.1254 149.2406,-71.1706 177.3128,-73.8173 l 6.6802,-0.6298 6.2836,-8.5 c 8.1068,-10.9662 16.0195,-19.9207 20.743,-23.4736 l 3.7502,-2.8209 -0.3874,-6.8573 -0.3875,-6.8573 3.9953,-3.9954 c 3.5168,-3.5168 4.5535,-3.9955 8.653,-3.9955 10.2464,0 18.998,8.2658 23.503,22.1983 1.7592,5.4406 11.5254,14 21.3797,18.7376 15.0073,7.215 27.6395,9.4477 63.465,11.2173 32.3536,1.5981 70.8134,-0.5506 91.7653,-5.127 l 5.0351,-1.0997 4.8649,-19.7133 c 2.6757,-10.8422 5.4656,-21.7688 6.1996,-24.2812 3.7944,-12.9868 20.1057,-17.9115 30.4621,-9.1971 3.5415,2.98 6.8677,9.4271 6.8436,13.2651 -0.01,1.375 -7.1414,26.2766 -15.8507,55.337 -8.7093,29.0603 -15.2574,52.2353 -14.5514,51.5 0.7059,-0.7354 4.7298,-5.612 8.9417,-10.837 18.9705,-23.5329 35.5511,-38.893 49.4119,-45.7745 6.4331,-3.1939 8.3183,-3.6699 14.533,-3.6699 5.9676,0 7.904,0.4471 11.7844,2.7212 6.6863,3.9184 10.0604,8.5098 17.3896,23.6631 25.5884,52.9047 55.9968,70.9652 98.6653,58.6004 22.0234,-6.3821 48.6815,-21.3125 87.8468,-49.2004 l 14.6111,-10.4038 5.147,-15.7181 c 5.5264,-16.8767 15.1908,-37.9623 19.488,-42.5187 8.4558,-8.9658 27.3964,-7.0733 34.3485,3.432 4.4405,6.7101 3.7381,12.0913 -3.4422,26.3687 -16.1997,32.2122 -25.4527,60.7561 -25.6091,79 -0.1312,15.2974 5.4407,23.8949 16.321,25.1835 24.7524,2.9315 116.9866,-26.8732 240.5247,-77.7235 17.05,-7.0181 33.7,-14.0386 37,-15.6012 3.3,-1.5625 7.1815,-3.2996 8.6255,-3.8602 1.6857,-0.6544 5.1395,-4.7789 9.6494,-11.5233 21.0812,-31.5265 48.6581,-52.7182 76.2006,-58.5574 7.7869,-1.6508 22.9962,-1.8311 28.3792,-0.3364 5.2813,1.4665 12.1406,8.041 14.3427,13.7474 2.1736,5.6325 2.3658,18.9557 0.3921,27.1711 -2.1636,9.0055 -8.9413,25.5121 -11.4387,27.8584 -3.6889,3.4654 -12.5912,4.5977 -21.5169,2.7367 -11.9408,-2.4897 -19.1339,-7.9997 -19.1339,-14.6565 0,-1.1884 3.0684,-6.0482 6.8188,-10.7997 11.0652,-14.0189 15.3388,-21.3054 13.2522,-22.595 -0.5011,-0.3097 -5.1096,2.2268 -10.2412,5.6368 -6.6356,4.4096 -14.264,11.1265 -26.4158,23.2596 -31.6263,31.5777 -49.985,60.7139 -54.2121,86.0374 -1.8002,10.7843 -0.8424,17.0808 3.8466,25.2866 9.5622,16.7339 29.8004,19.3643 69.9514,9.0917 33.1527,-8.4821 75.3977,-31.4299 130.6299,-70.9591 11.1622,-7.9887 14.0845,-10.6688 19.5,-17.8844 12.7636,-17.0061 31.8123,-33.4538 48.3701,-41.7656 25.1702,-12.635 56.6688,-13.4083 73.007,-1.7923 l 4.6856,3.3314 10.1537,-7.9366 c 12.5495,-9.8092 24.0974,-15.8494 30.3016,-15.8494 11.3341,0 15.2937,5.3704 15.3301,20.7922 0.027,11.5935 -1.8915,21.0859 -7.6229,37.7078 -11.3554,32.9326 -13.6695,44.2426 -11.4818,56.1158 1.4706,7.9811 3.8006,12.7822 8.2891,17.0801 17.5278,16.7833 61.7078,11.1535 123.3376,-15.7167 47.1483,-20.5564 98.48,-52.3708 105.0745,-65.1233 1.5889,-3.0725 6.0819,-5.8559 9.4528,-5.8559 1.1696,0 3.496,1.3695 5.1699,3.0433 2.7737,2.7738 3.005,3.5045 2.6108,8.25 -0.2378,2.8637 -1.259,6.4677 -2.2694,8.0089 -5.8096,8.862 -64.8192,41.1996 -107.8887,59.1236 -45.7503,19.0396 -76.4231,27.2768 -105.1499,28.2381 -23.8269,0.7974 -35.9514,-2.3937 -46.4667,-12.2295 -14.8681,-13.9074 -17.5096,-35.5024 -9.1661,-74.9344 2.2112,-10.45 5.1533,-23.0293 6.5381,-27.954 l 2.5178,-8.954 -7.9269,7.954 -7.9268,7.954 0.9414,4 c 1.7469,7.4219 1.2352,12.0543 -1.7194,15.5656 -5.9327,7.0506 -20.0232,9.5055 -21.8328,3.8039 -0.5048,-1.5903 -3.6011,0.945 -18.2831,14.9707 -58.0387,55.4439 -88.4148,78.1598 -104.5167,78.1598 -5.4414,0 -13.9136,-4.1564 -17.1671,-8.4221 -1.3489,-1.7684 -3.1363,-5.1534 -3.9721,-7.5223 -1.871,-5.3031 -1.9513,-17.5887 -0.1646,-25.1795 l 1.3238,-5.624 -8.5894,5.5427 c -41.1869,26.5773 -85.6939,47.1108 -118.7532,54.7871 -14.5478,3.378 -35.6488,4.3029 -46.301,2.0293 -15.4931,-3.3067 -29.2637,-12.5563 -36.3829,-24.438 -9.702,-16.1923 -12.078,-39.2894 -6.3706,-61.9282 1.2819,-5.0847 2.2129,-9.245 2.0688,-9.245 -0.1441,0 -13.6694,5.3582 -30.0562,11.907 -106.2423,42.4589 -187.0066,67.7594 -233.6392,73.1908 -11.3245,1.3189 -30.3788,0.6865 -35.9781,-1.1941 -6.0901,-2.0455 -16.5365,-11.519 -20.3088,-18.4175 -4.9966,-9.1372 -6.7027,-17.0532 -6.7914,-31.5099 l -0.077,-12.5237 -15,10.1442 c -33.6028,22.7249 -60.1114,35.2146 -87,40.9908 -10.9021,2.342 -33.5123,2.4034 -42.741,0.1161 -27.4883,-6.8129 -50.5635,-27.7817 -66.4027,-60.3411 -5.2685,-10.83 -7.0895,-12.5848 -11.6935,-11.2691 -8.8864,2.5395 -28.7329,20.4434 -47.6045,42.9448 -18.4884,22.0446 -38.8061,50.3197 -44.524,61.9617 -1.4857,3.025 -3.2912,6.625 -4.0123,8 -2.9415,5.6087 -16.4123,10.1812 -25.1599,8.5401 -4.8784,-0.9152 -9.3621,-5.4532 -9.3621,-9.4755 0,-1.699 6.975,-30.9781 15.5,-65.0646 8.525,-34.0865 15.5,-62.3212 15.5,-62.7437 0,-0.4226 -16.0875,-0.6108 -35.75,-0.4183 -62.3228,0.6102 -103.6999,-3.6906 -127.1404,-13.2153 l -5.8245,-2.3667 -0.6464,10.6432 c -0.8472,13.9486 -3.9458,32.7971 -7.7431,47.1008 -14.3785,54.1598 -42.5575,87.1472 -72.398,84.7519 -14.8861,-1.1949 -24.5121,-11.3884 -27.577,-29.2027 -3.1571,-18.3502 4.3258,-54.2636 16.5314,-79.3415 l 4.4815,-9.2077 -3.2168,0.01 c -1.7692,0 -8.5049,1.1083 -14.9682,2.4531 -57.8959,12.0465 -137.5497,50.2289 -171.9857,82.442 l -6.6115,6.1848 2.0294,4.5877 c 3.2874,7.4317 5.7459,21.6165 7.0198,40.5021 3.3267,49.3157 -8.1742,153.0916 -24.1955,218.3224 -9.043,36.8187 -26.9031,81.7089 -41.1164,103.3437 -11.3823,17.3254 -24.8654,26.167 -35.246,23.1126 z m 18.2666,-53.9563 c 13.5877,-26.6364 27.136,-68.1923 34.516,-105.8687 10.0291,-51.2 20.6159,-145.0244 19.4047,-171.9722 l -0.3299,-7.3409 -5.3197,15.3409 c -16.0934,46.4097 -29.6337,94.6403 -41.0837,146.3409 -13.3918,60.4677 -21.6026,121.7201 -18.4377,137.5446 l 0.6589,3.2946 2.3626,-2.9196 c 1.2994,-1.6058 5.0024,-8.0946 8.2288,-14.4196 z m -1065.4092,-20.5189 c 46.2001,-6.9629 103.7974,-33.8093 146.8339,-68.4399 55.5617,-44.7094 82.3392,-96.9573 74.1395,-144.6602 -0.8396,-4.8846 -2.2438,-11.131 -3.1204,-13.881 -2.4877,-7.8034 -7.4598,-19.5 -8.2894,-19.5 -1.1748,0 -33.5347,23.9849 -56.6176,41.9646 -98.8852,77.0232 -167.1595,145.2083 -187.4859,187.2407 -5.637,11.6566 -5.3357,16.8905 1.0399,18.0627 5.7167,1.051 24.1831,0.6173 33.5,-0.7869 z M 2414.0201,2231.602 c 12.5153,-6.4719 34.2817,-59.7766 43.2922,-106.0197 3.7247,-19.1157 4.2493,-25.6735 2.1904,-27.3822 -1.4699,-1.22 -2.2603,-0.8058 -6.7385,3.5315 -15.0625,14.5885 -36.3523,50.1871 -43.3069,72.4136 -9.1298,29.1784 -11.0157,50.5959 -4.9861,56.6256 2.7595,2.7594 5.3792,2.9875 9.5489,0.8312 z m 1165.1833,-54.5929 c 7.9398,-4.0506 15.282,-10.1953 30.7743,-25.7551 14.6953,-14.7594 30.9589,-33.6908 30.9589,-36.0372 0,-2.0953 -9.8937,-1.1818 -15.3119,1.4136 -15.7621,7.5505 -41.3194,34.4539 -51.1819,53.8777 -4.653,9.1637 -3.5122,10.7215 4.7606,6.501 z m -875.1916,317.0488 c -27.8094,-5.4561 -49.5947,-25.0742 -56.1032,-50.5222 -4.1878,-16.374 -1.9814,-35.9082 5.7254,-50.691 5.8136,-11.1514 17.2997,-22.135 29.3243,-28.0416 14.0823,-6.9173 19.8087,-8.1702 36.9783,-8.0909 16.8535,0.078 27.0204,2.1213 39.941,8.0275 8.9382,4.0857 8.1152,2.5922 10.5516,19.1489 1.8376,12.487 1.8487,13.2566 0.1914,13.2566 -0.7238,0 -2.3797,-2.5875 -3.6798,-5.75 -4.6459,-11.3014 -18.0456,-21.8792 -32.6752,-25.7941 -7.5395,-2.0176 -22.1606,-2.0061 -29.7475,0.023 -25.1926,6.7388 -42.5815,31.2494 -42.5815,60.0208 0,18.3089 5.5636,32.0752 18.0794,44.7342 14.7999,14.9695 34.1223,20.5303 56.5826,16.284 27.9401,-5.2823 46.0432,-27.1144 48.9338,-59.0134 0.4833,-5.3336 1.0741,-7.5048 2.0421,-7.5048 1.0476,0 1.3621,2.058 1.3621,8.912 0,28.6504 -12.1795,50.0832 -34.0648,59.9454 -10.0787,4.5418 -19.086,6.1575 -33.6326,6.033 -7.0414,-0.06 -14.7938,-0.5002 -17.2274,-0.9777 z m 652,0.057 c -18.8188,-3.9322 -35.249,-14.5005 -44.7458,-28.7817 -10.7008,-16.0915 -13.851,-41.4404 -7.7358,-62.2467 6.261,-21.3026 23.8218,-37.7522 47.1197,-44.1382 6.3934,-1.7525 10.5602,-2.1344 23.2867,-2.1344 12.7265,0 16.8933,0.3819 23.2867,2.1344 24.8282,6.8055 42.7043,24.8337 48.2866,48.6974 2.3719,10.1397 2.1532,27.8292 -0.4673,37.8005 -5.977,22.7429 -22.0419,39.2072 -45.606,46.7398 -5.7903,1.851 -9.765,2.2909 -23,2.5456 -8.8,0.1693 -17.9912,-0.1082 -20.4248,-0.6167 z m 32.169,-7.9038 c 14.375,-3.6765 24.918,-11.1982 32.9208,-23.487 11.9428,-18.3386 13.0549,-47.2022 2.6423,-68.5784 -9.5298,-19.5637 -26.9884,-30.1223 -49.8073,-30.1223 -20.0625,0 -36.2856,8.2997 -46.6015,23.8411 -12.4684,18.7844 -13.8704,48.3907 -3.3097,69.8916 11.5693,23.5544 37.81,35.1931 64.1554,28.455 z m 234.7558,7.5067 c -15.1245,-3.3616 -25.1129,-8.6572 -35.1378,-18.6293 -13.1403,-13.0712 -18.8111,-27.9767 -18.8448,-49.5333 -0.045,-28.9677 13.0807,-50.6012 37.651,-62.0538 9.6014,-4.4754 17.6446,-6.3057 30.8316,-7.016 48.0328,-2.5872 81.2071,28.927 78.108,74.1994 -2.2685,33.1389 -22.0904,56.2 -54.108,62.9499 -8.4677,1.7852 -30.6269,1.833 -38.5,0.083 z m 32.2573,-7.0393 c 9.2559,-1.9614 20.0699,-7.8672 26.8937,-14.6873 6.7791,-6.7755 13.1927,-19.0373 15.3496,-29.346 1.9339,-9.2425 1.8887,-24.8508 -0.098,-33.8026 -4.8361,-21.7935 -19.6147,-37.7436 -40.0739,-43.2507 -7.6239,-2.0521 -23.0768,-2.0404 -30.7475,0.023 -19.283,5.188 -33.6167,20.3329 -39.3056,41.53 -2.396,8.9276 -2.332,29.0219 0.1209,38 8.4512,30.9326 36.5963,48.1585 67.8605,41.5333 z m -1311.5814,5.0645 c -0.7136,-1.8596 0.1504,-2.5978 3.0404,-2.5978 1.3107,0 3.7031,-0.6826 5.3164,-1.5169 6.0679,-3.1378 5.9673,-2.0946 5.9673,-61.8864 0,-39.0575 -0.3271,-55.2204 -1.1541,-57.0356 -1.446,-3.1735 -4.5179,-5.2213 -9.1304,-6.0867 -1.9673,-0.369 -3.8294,-1.3289 -4.138,-2.1331 -0.4878,-1.2712 4.8207,-1.4212 40.6807,-1.1491 l 41.2418,0.313 7.9904,2.821 c 14.8386,5.2388 24.5962,12.5343 32.43,24.2467 6.917,10.3418 10.1409,20.7638 10.8042,34.9271 1.03,21.9933 -4.8292,38.8146 -18.1334,52.0597 -7.7025,7.6683 -13.1575,11.1086 -23.5685,14.8641 -10.6336,3.8357 -19.7737,4.5762 -56.4881,4.5762 -28.5212,0 -34.4115,-0.2369 -34.8587,-1.4022 z m 76.3241,-7.7679 c 12.2632,-2.271 25.9225,-11.9854 32.2551,-22.9398 10.6437,-18.4117 11.5594,-45.8038 2.1978,-65.7432 -2.4897,-5.3029 -5.3345,-9.2269 -10.2026,-14.073 -12.4887,-12.4324 -21.4612,-15.0304 -52.0003,-15.0565 l -20.25,-0.017 v 59.995 59.995 l 21.25,-0.5708 c 11.6875,-0.314 23.725,-1.0292 26.75,-1.5893 z m 72.678,8.5148 c -1.7944,-1.7944 -0.4796,-3.3447 2.8367,-3.3447 2.6076,0 4.4787,-0.8834 7.25,-3.4232 l 3.7353,-3.4231 v -56.4963 -56.4963 l -2.4509,-2.6089 c -1.348,-1.4349 -4.4739,-3.1987 -6.9464,-3.9197 -9.8636,-2.8761 -5.8629,-3.4237 28.5972,-3.9148 30.7031,-0.4375 36.4414,-0.8654 44.5501,-3.3222 1.6048,-0.4863 1.75,0.5601 1.75,12.6104 0,11.9765 -0.155,13.1109 -1.75,12.8043 -1.2134,-0.2333 -1.9204,-1.609 -2.3057,-4.4868 -1.2421,-9.2758 -4.1385,-10.3234 -28.5414,-10.3234 h -19.6964 l 0.6468,7.6509 c 0.3557,4.208 0.6467,17.033 0.6467,28.5 v 20.8491 h 16.5769 16.5769 l 2.9231,-2.9231 c 1.9641,-1.9641 2.9231,-3.9325 2.9231,-6 0,-1.9201 0.5088,-3.0769 1.3533,-3.0769 1.5224,0 2.6467,9.8343 2.6467,23.1509 0,7.1824 -0.1699,7.8491 -2,7.8491 -1.5471,0 -2,-0.6667 -2,-2.9442 0,-1.6692 -1.0442,-4.1594 -2.4112,-5.75 l -2.4112,-2.8058 -17.7396,-0.3162 -17.7396,-0.3163 0.6437,6.8163 c 0.354,3.7489 0.6469,16.3019 0.6508,27.8955 l 0.01,21.0792 16.25,-0.4024 c 21.3481,-0.5286 25.2802,-1.6199 32.7117,-9.0783 3.2027,-3.2142 6.4949,-7.7154 7.5877,-10.3739 1.1518,-2.8021 2.7234,-4.9035 3.8968,-5.2103 1.0816,-0.2829 2.0798,-0.401 2.2182,-0.2625 0.1385,0.1385 -2.3475,7.4331 -5.5244,16.2103 l -5.7762,15.9586 -39.5039,0.2613 c -21.7272,0.1437 -39.809,-0.044 -40.1819,-0.4166 z m 295.322,-1.213 c 0,-1.4266 0.9547,-1.9964 4.0374,-2.4099 4.9992,-0.6705 10.3788,-4.6561 12.863,-9.5297 3.0394,-5.9631 49.8932,-117.4229 50.6506,-120.4921 0.4198,-1.7016 1.259,-2.6824 2.139,-2.5 0.874,0.1811 11.7511,24.8774 27.439,62.3 17.0547,40.683 26.9159,62.9879 28.681,64.8732 3.0636,3.2722 7.942,5.6268 11.6579,5.6268 1.4607,0 2.5321,0.572 2.5321,1.3518 0,1.6876 -10.8326,2.6337 -30.25,2.6422 -13.0853,0.01 -13.75,-0.091 -13.75,-1.994 0,-1.4667 0.6667,-2 2.5,-2 3.1878,0 6.5,-3.284 6.5,-6.4447 0,-1.3446 -2.7741,-9.9022 -6.1647,-19.0169 l -6.1646,-16.572 -24.9743,0.2668 -24.9744,0.2668 -6.361,16.4684 c -3.4985,9.0576 -6.361,17.4167 -6.361,18.5757 0,2.6476 3.9567,6.4559 6.7075,6.4559 1.7199,0 3.2925,1.7108 3.2925,3.5818 0,0.23 -9,0.4182 -20,0.4182 -18.8635,0 -20,-0.1062 -20,-1.8683 z m 89.0116,-52.8817 c 0.021,-1.331 -20.3407,-55.2542 -20.7205,-54.8744 -0.2018,0.2018 -5.244,12.7998 -11.2049,27.9956 l -10.838,27.6288 h 21.3759 c 11.7568,0 21.3811,-0.3375 21.3875,-0.75 z m 58.9884,52.75 c 0,-1.4771 0.6667,-2 2.5497,-2 1.4023,0 3.8697,-0.6826 5.483,-1.5169 6.0731,-3.1406 5.9673,-2.0314 5.9673,-62.5334 v -55.1497 l -3.3211,-3.3211 c -1.972,-1.972 -4.8156,-3.6015 -7,-4.0113 -2.1411,-0.4017 -3.6789,-1.2707 -3.6789,-2.0789 0,-1.154 5.0531,-1.3887 29.8947,-1.3887 35.7617,0 39.2841,0.655 48.4182,9.003 8.1428,7.4421 10.1864,12.7619 10.1868,26.518 3e-4,10.4301 -0.1753,11.3777 -3.2738,17.6717 -4.3499,8.8359 -12.3009,16.1918 -19.8849,18.3965 -5.2201,1.5176 -5.4035,1.6787 -3.4594,3.0405 1.1292,0.7908 5.9625,6.7102 10.7408,13.1541 16.7227,22.5517 19.5557,26.0702 25.8835,32.1465 6.3408,6.0887 11.9549,9.3102 16.2358,9.3164 3.1579,0 8.9331,-4.6853 11.15,-9.0546 3.0207,-5.9536 49.7342,-117.4245 50.4731,-120.4421 0.6925,-2.8286 3.0265,-3.7193 3.9302,-1.5 0.28,0.6875 12.028,28.6753 26.1068,62.195 17.1459,40.8225 26.5058,61.9119 28.348,63.8732 3.1216,3.3235 7.9853,5.6818 11.7181,5.6818 1.4607,0 2.5321,0.572 2.5321,1.3518 0,1.6876 -10.8326,2.6337 -30.25,2.6422 -13.0853,0.01 -13.75,-0.091 -13.75,-1.994 0,-1.4232 0.6667,-2 2.3114,-2 2.9947,0 6.6853,-3.4639 6.7005,-6.289 0.01,-1.216 -2.8024,-9.756 -6.2421,-18.9777 l -6.2541,-16.7666 -24.9468,0.2666 -24.9468,0.2667 -6.2449,16 c -3.4346,8.8 -6.2746,17.22 -6.311,18.711 -0.08,3.2545 3.3683,6.789 6.6224,6.789 1.6447,0 2.3114,0.5768 2.3114,2 0,1.9378 -0.6667,2 -21.4508,2 -23.7553,0 -29.3119,-0.7745 -37.8518,-5.2761 -7.6087,-4.0107 -12.6386,-9.7015 -27.6345,-31.2659 -13.6359,-19.6088 -18.9007,-25.5467 -24.4203,-27.5426 -4.0363,-1.4595 -4.9023,-3.9055 -1.3926,-3.9332 1.2375,-0.01 6.142,-0.4274 10.8988,-0.928 13.282,-1.3979 19.8919,-5.6674 24.6175,-15.9011 2.1762,-4.7128 2.4195,-6.3828 2.0515,-14.0809 -0.3342,-6.9892 -0.9788,-9.8809 -3.2269,-14.4759 -5.123,-10.4711 -12.2807,-13.5963 -31.1401,-13.5963 h -10.4508 v 56.5989 c 0,50.3134 0.1816,56.9814 1.6348,60.044 1.7637,3.7166 5.7963,6.3571 9.7086,6.3571 2.0199,0 3.6566,1.6032 3.6566,3.5818 0,0.23 -9.675,0.4182 -21.5,0.4182 -20.8333,0 -21.5,-0.062 -21.5,-2 z m 198,-52.684 c 0,-0.7093 -20.062,-54.571 -20.5362,-55.1349 -0.2362,-0.2808 -4.5409,10.442 -18.4944,46.0689 l -3.8186,9.75 h 21.4246 c 11.7835,0 21.4246,-0.3078 21.4246,-0.684 z m 59,52.7729 c 0,-1.5723 0.6305,-2.0889 2.5497,-2.0889 3.8191,0 8.2232,-2.6601 9.9579,-6.0148 1.3444,-2.5997 1.5064,-10.0682 1.267,-58.403 l -0.2746,-55.4222 -2.4876,-2.6474 c -1.3682,-1.4561 -4.4057,-3.1604 -6.75,-3.7874 -2.3443,-0.627 -4.2624,-1.7217 -4.2624,-2.4326 0,-2.0003 46.5293,-1.8267 54.3204,0.2026 11.4101,2.972 19.0581,8.7511 23.0471,17.4154 3.0635,6.654 2.9665,19.6407 -0.1995,26.6968 -2.409,5.3692 -7.755,11.1935 -12.465,13.5803 l -2.797,1.4174 5.297,1.6865 c 10.4249,3.3191 20.0316,13.4605 22.9319,24.2084 0.5937,2.2 0.8886,8.05 0.6554,13 -0.4923,10.4487 -3.0873,16.6445 -9.4539,22.5716 -5.1148,4.7617 -7.9228,6.4101 -15.4806,9.0873 -5.931,2.101 -8.344,2.2771 -36.1058,2.6352 -29.6279,0.3821 -29.75,0.3751 -29.75,-1.7052 z m 56.9135,-8.6558 c 6.7494,-2.0044 13.1537,-7.8373 16.0841,-14.6491 1.902,-4.4215 2.1624,-6.4814 1.7983,-14.227 -0.6035,-12.8401 -5.1588,-20.5724 -15.1519,-25.7197 -4.7118,-2.4269 -15.4751,-4.7965 -21.894,-4.8199 -3.959,-0.015 -4.75,-0.3273 -4.75,-1.8785 0,-1.5495 1.014,-1.9531 6.0565,-2.4103 7.539,-0.6836 16.083,-4.7339 19.5361,-9.2611 5.1783,-6.7892 6.6684,-16.8584 3.8827,-26.2386 -3.2918,-11.0849 -11.41,-16.2031 -25.7253,-16.2191 l -8.75,-0.01 v 58.5 58.5 h 11.8185 c 7.8182,0 13.6045,-0.5304 17.095,-1.5669 z m 211.0865,8.7875 c 0,-1.5466 0.8917,-2.0768 4.25,-2.5272 3.0462,-0.4085 5.029,-1.4416 7,-3.6474 l 2.75,-3.0776 v -55.5338 c 0,-46.6609 -0.2326,-55.9838 -1.4559,-58.3494 -1.5314,-2.9614 -6.8935,-6.0852 -10.4452,-6.0852 -1.2421,0 -2.0989,-0.642 -2.0989,-1.5726 0,-1.3996 2.9409,-1.5338 26.75,-1.2203 25.1378,0.3311 27.0985,0.4912 32.5323,2.6565 13.1701,5.2483 19.7485,13.955 20.5123,27.1488 0.324,5.597 -0.021,9.1516 -1.2437,12.8345 -1.9259,5.7982 -8.813,14.0473 -13.7661,16.4886 -2.5841,1.2736 -2.8389,1.6238 -1.1945,1.6417 4.0615,0.044 14.287,6.0925 18.8151,11.1288 6.102,6.7869 8.8387,14.2515 8.9434,24.394 0.045,4.4 -0.4587,9.8266 -1.1203,12.0592 -3.0075,10.1493 -12.089,18.6191 -24.316,22.6781 -5.8259,1.9341 -9.1339,2.1659 -36.1625,2.5347 -29.0049,0.3956 -29.75,0.3568 -29.75,-1.5514 z m 56.4381,-8.6519 c 14.3803,-4.3279 21.5114,-17.2724 18.5904,-33.7455 -2.7774,-15.6631 -13.837,-23.8928 -34.2785,-25.5075 -6.4012,-0.5056 -7.75,-0.9093 -7.75,-2.3193 0,-1.3711 1.2714,-1.8259 6.4585,-2.3103 14.8471,-1.3864 23.3041,-9.7039 24.3248,-23.9236 0.632,-8.8045 -1.098,-14.7024 -5.9193,-20.1796 -4.9606,-5.6356 -10.4927,-7.5829 -21.5421,-7.5829 h -8.3219 v 58.5 58.5 h 11.8411 c 7.3911,0 13.6284,-0.5379 16.597,-1.4313 z M 2485.965,2033.72 c -2.9846,-7.8501 16.0475,-69.9311 26.3262,-85.8741 4.8695,-7.5528 6.6436,-8.7995 13.3934,-9.4116 12.3694,-1.1216 22.7065,4.6527 22.7065,12.6837 0,4.7273 -2.0492,7.8234 -34.765,52.5272 -12.8804,17.6 -24.1534,32.1452 -25.0512,32.3228 -1.0049,0.1986 -2.0082,-0.6655 -2.6099,-2.248 z m -880.5284,-8.4354 c -6.5772,-4.0627 -8.7177,-8.6075 -8.7013,-18.4752 0.028,-16.9427 15.034,-31.9932 27.5025,-27.5842 10.8299,3.8297 14.4345,19.5058 7.6892,33.4398 -5.5502,11.4651 -18.4278,17.5999 -26.4904,12.6196 z m 1439,0.8964 c -6.4706,-2.7094 -9.9027,-9.3103 -9.8974,-19.0358 0.01,-9.4471 3.3287,-17.0091 10.0927,-22.963 14.3304,-12.6141 29.4121,-3.9155 28.093,16.2032 -1.1377,17.3524 -16.027,30.9296 -28.2883,25.7956 z m -333.8724,-79.5453 c -22.6539,-3.6861 -39.763,-10.1526 -78.6276,-29.718 -64.1716,-32.3056 -89.3605,-42.3919 -110.5543,-44.2689 -61.4299,-5.4405 -103.3588,-41.3132 -113.9648,-97.5036 -2.4002,-12.7162 -2.4526,-37.0645 -0.1064,-49.5 5.0098,-26.5538 15.2134,-46.0513 33.29,-63.6118 25.6083,-24.8773 64.834,-37.3374 106.8109,-33.9288 36.212,2.9405 63.5692,14.8463 84.7188,36.8696 16.4135,17.0915 25.499,35.247 30.3795,60.7073 2.3194,12.0994 2.3428,36.6022 0.047,49.4246 -5.48,30.6105 -20.8011,55.9295 -44.3183,73.2382 -11.7808,8.6707 -32.881,17.9932 -48.3028,21.3412 l -3.5,0.7598 4.5,1.4714 c 12.6827,4.147 50.3339,18.6951 74.8365,28.9161 40.5148,16.9004 52.0991,20.4864 75.4873,23.3677 13.6909,1.6866 42.3978,0.696 54.1762,-1.8696 18.9663,-4.1313 35.6134,-11.5002 48.9245,-21.6565 6.8747,-5.2454 8.6271,-6.1719 9.5562,-5.0525 0.8684,1.0464 0.6744,2.2767 -0.8196,5.1971 -9.7627,19.0847 -39.2203,37.7871 -70.6611,44.8621 -10.0661,2.2652 -40.3884,2.8232 -51.8724,0.9546 z m -161.1276,-86.5294 c 23.1931,-3.3108 42.1173,-12.6276 57.1095,-28.1162 19.9333,-20.5933 29.6841,-47.2863 29.7148,-81.3449 0.032,-35.144 -10.2891,-62.7412 -31.2376,-83.5281 -18.2754,-18.1344 -41.2801,-26.995 -70.0867,-26.995 -40.5733,0 -71.7444,18.6941 -89.2461,53.5231 -15.5051,30.8558 -16.4851,74.897 -2.4093,108.272 7.3964,17.5374 22.1149,34.8837 37.8546,44.6126 18.6859,11.5501 45.3572,16.8517 68.3008,13.5765 z m -542.5,11.5994 c -32.5857,-4.7191 -59.2578,-17.7201 -79.6744,-38.8361 -10.706,-11.0726 -15.963,-18.6077 -22.3916,-32.0942 -21.9891,-46.1314 -12.7127,-105.19 21.8848,-139.3294 6.8834,-6.7922 17.6199,-14.9271 25.5122,-19.3301 5.7908,-3.2306 5.8446,-3.2396 7.7905,-1.2936 1.946,1.9459 1.921,1.99 -3.621,6.3912 -20.4689,16.2552 -33.4198,48.2941 -35.1775,87.0245 -1.3476,29.6954 4.5759,56.255 17.4745,78.3515 6.1071,10.4618 22.7915,27.3627 32.7025,33.1267 39.7679,23.1281 92.3043,19.849 127.0214,-7.9281 24.004,-19.2055 37.6087,-49.1413 39.1489,-86.1429 2.1109,-50.7134 -21.1929,-92.5395 -59.29,-106.4147 -11.4557,-4.1721 -21.0821,-5.4383 -36.5957,-4.8134 -22.9776,0.9255 -38.1489,7.0718 -52.3413,21.205 -12.5309,12.4787 -18.5023,25.7632 -18.5291,41.2216 -0.013,7.3478 -0.2244,8.2652 -2.0396,8.8413 -1.1139,0.3535 -2.3139,0.3542 -2.6666,0 -0.3527,-0.3527 -0.8184,-5.0495 -1.0348,-10.4373 -1.1552,-28.7627 16.0054,-54.9974 43.4431,-66.4143 26.0143,-10.8247 64.5827,-9.2347 92.1173,3.7976 33.1094,15.6708 54.3829,43.1819 62.4111,80.7104 2.6507,12.3907 3.1526,38.5766 0.9738,50.8023 -9.258,51.9483 -46.8811,88.9684 -101.6753,100.0457 -13.1908,2.6667 -42.0457,3.455 -55.4432,1.5148 z m 782.5,0.399 c -30.7932,-4.7864 -54.4174,-20.8944 -66.3975,-45.2726 -8.9777,-18.2685 -8.4141,-12.0572 -9.0448,-99.6869 -0.5111,-71.0282 -0.7026,-77.7648 -2.2926,-80.6712 -2.8188,-5.1523 -7.3203,-7.7057 -14.3771,-8.155 -5.4762,-0.3487 -6.247,-0.6556 -6.626,-2.6383 -0.421,-2.2025 -0.1977,-2.2555 12.1546,-2.8856 6.9209,-0.353 22.5959,-0.6436 34.8334,-0.6458 h 22.25 v 2.4018 c 0,2.1914 -0.5254,2.4628 -5.9974,3.0979 -7.4782,0.8679 -11.8068,3.6506 -14.7909,9.5084 l -2.2882,4.4919 0.3587,71.5 c 0.3125,62.2782 0.5728,72.4028 2.0178,78.5 7.2473,30.5787 24.4576,49.9162 50.3095,56.528 10.4589,2.675 25.9867,2.6541 37.2666,-0.05 25.6397,-6.1465 44.2739,-24.9961 51.384,-51.978 2.224,-8.4396 2.2399,-9.0307 2.2399,-83.176 0,-74.2035 -0.013,-74.6939 -2.0919,-77.5 -3.8292,-5.1691 -8.1119,-7.324 -14.556,-7.324 -5.4734,0 -5.8521,-0.1518 -5.8521,-2.3463 0,-2.2973 0.2543,-2.36 12.157,-3 18.0654,-0.9714 50.843,-0.8009 50.843,0.2645 0,0.505 0.2415,1.5476 0.5367,2.3167 0.4069,1.0604 -1.1533,1.6601 -6.4534,2.4805 -4.1179,0.6374 -8.2479,1.9777 -10.0517,3.2621 -6.2793,4.4713 -6.0291,1.3435 -6.0574,75.7228 -0.014,37.2899 -0.4609,72.2746 -0.9927,77.744 -3.1264,32.1566 -18.5609,55.4383 -45.4815,68.6059 -13.9553,6.8259 -23.5277,8.9811 -42,9.4562 -8.25,0.2121 -17.7,-0.034 -21,-0.5469 z m 402.0202,-0.01 c -16.2425,-2.5476 -33.9407,-9.5046 -39.634,-15.5798 -2.3285,-2.4847 -2.3834,-2.9488 -2.2705,-19.2094 0.091,-13.0775 0.5297,-18.1695 2.0391,-23.6632 1.666,-6.0636 2.2525,-7.0391 4.3842,-7.2921 2.4351,-0.2891 2.4621,-0.204 2.5701,8.1069 0.2987,22.9878 12.6011,39.8584 32.9259,45.1523 16.2856,4.2419 35.1146,-1.0593 46.4923,-13.0895 12.043,-12.7337 15.0555,-32.4151 7.3283,-47.8772 -3.2769,-6.557 -2.4093,-5.678 -42.7365,-43.2984 -24.6711,-23.0151 -36.0039,-34.277 -38.7172,-38.475 -18.804,-29.0935 -8.6612,-67.9196 21.7183,-83.1371 12.0685,-6.0452 30.6861,-7.6119 49.8798,-4.1974 4.95,0.8806 11.8125,1.6025 15.25,1.6043 h 6.25 v 21.5 21.5 h -2.3607 c -2.0987,0 -2.4289,-0.5759 -2.9753,-5.1894 -1.3143,-11.0968 -8.4528,-20.4749 -19.544,-25.6754 -5.0661,-2.3755 -6.7534,-2.6326 -17.12,-2.6087 -9.8187,0.023 -12.2262,0.3599 -16.4673,2.3076 -18.7011,8.5881 -27.5526,28.6865 -20.9168,47.4943 3.0447,8.6297 7.9872,13.941 43.8304,47.1014 20.0138,18.5158 37.487,35.1063 38.8293,36.8677 12.9469,16.9886 14.4113,45.2609 3.4986,67.5445 -6.1677,12.5944 -20.3519,23.9489 -35.7742,28.6373 -6.569,1.997 -27.6998,2.8503 -36.4798,1.4731 z m -993.9132,-5.5342 c -1.1358,-2.9599 -0.6095,-3.4182 3.9251,-3.4182 8.4833,0 16.0104,-4.8073 19.572,-12.5 1.7615,-3.8046 1.853,-8.6924 1.8739,-100.0537 l 0.022,-96.0536 -2.6229,-5.2635 c -3.2355,-6.4929 -7.9609,-9.8012 -16.1831,-11.3303 -5.3715,-0.9989 -8.3444,-2.9818 -6.7945,-4.5318 0.2457,-0.2456 21.744,-0.6994 47.7741,-1.0084 51.4203,-0.6103 58.3876,-0.1749 71.2313,4.452 18.2351,6.5692 31.1236,20.4476 36.0226,38.7893 4.5795,17.1453 2.7774,35.3339 -5.1024,51.5 -8.1642,16.7496 -24.6902,30.4833 -39.2118,32.5866 -2.5373,0.3675 -4.9103,0.8374 -5.2732,1.0442 -0.363,0.2067 2.2755,3.1869 5.8632,6.6226 3.5878,3.4356 12.3914,14.3466 19.5636,24.2466 34.9398,48.2286 47.296,61.4496 63.7089,68.1681 3.0383,1.2437 8.1117,2.5603 11.2742,2.9257 5.2773,0.6099 5.75,0.8686 5.75,3.1469 v 2.4823 l -17.75,-0.4588 c -15.8294,-0.4092 -18.5437,-0.7382 -25.0849,-3.0409 -19.9936,-7.0383 -28.2887,-15.2681 -57.4524,-57 -22.0031,-31.4854 -28.9207,-40.4549 -35.9812,-46.6542 -4.0007,-3.5126 -11.198,-7.0151 -14.4815,-7.0471 -1.6872,-0.016 -2.25,-0.6083 -2.25,-2.3663 0,-2.3203 0.1464,-2.3508 14.25,-2.9681 29.6275,-1.297 43.4707,-8.4862 52.3513,-27.1876 5.32,-11.2032 6.55,-23.1463 3.9099,-37.9644 -2.852,-16.0079 -11.9344,-29.031 -24.2733,-34.805 -5.5143,-2.5805 -8.0391,-3.0579 -21.0028,-3.9715 -8.1043,-0.5712 -19.1226,-0.7086 -24.4851,-0.3055 l -9.75,0.733 v 100.9466 c 0,97.369 0.068,101.078 1.9084,104.6566 3.8265,7.4391 11.2739,12.2102 19.0595,12.2102 3.6342,0 4.0321,0.2467 4.0321,2.5 v 2.5 h -36.893 c -32.7191,0 -36.9617,-0.179 -37.5,-1.5818 z m 759.393,0.6703 c 0,-0.5087 -0.2731,-1.6367 -0.607,-2.5067 -0.5015,-1.307 0.2369,-1.5856 4.25,-1.6038 9.1245,-0.041 17.9546,-6.4217 20.3595,-14.7114 0.7662,-2.6414 1.0038,-32.7977 0.7951,-100.9436 -0.2952,-96.4004 -0.3141,-97.199 -2.3623,-99.9421 -4.1788,-5.5965 -8.8125,-8.4192 -15.692,-9.5592 -4.7718,-0.7907 -6.7033,-1.5608 -7.0279,-2.802 -0.407,-1.5565 1.3232,-1.7711 19.0793,-2.3657 10.7398,-0.3597 34.7391,-0.654 53.3317,-0.654 34.5464,0 49.2988,-1.1011 60.5691,-4.5206 2.6425,-0.8018 5.142,-1.4626 5.5545,-1.4686 0.4125,-0.01 0.75,9.8892 0.75,21.9892 v 22 h -2.5 c -2.2212,0 -2.5006,-0.4182 -2.5056,-3.75 -0.014,-9.6655 -6.323,-18.8599 -14.4977,-21.1293 -2.5639,-0.7118 -16.1533,-1.1115 -37.9062,-1.1151 l -33.9095,-0.01 0.6595,22.6616 c 0.3627,12.4639 0.6595,35.4139 0.6595,51 v 28.3457 l 27.75,-0.01 c 15.2625,0 29.345,-0.4486 31.2944,-0.9902 5.7331,-1.5927 9.8862,-6.7072 11.2428,-13.8454 0.9943,-5.2323 2.938,-8.2669 4.3748,-6.8302 0.2066,0.2067 0.6644,12.5923 1.0173,27.5236 l 0.6416,27.1478 h -2.5452 c -2.3323,0 -2.6022,-0.4559 -3.2261,-5.4495 -0.806,-6.4506 -3.7316,-11.1469 -8.534,-13.6989 -3.166,-1.6824 -6.1994,-1.8516 -33.1978,-1.8516 h -29.7134 l 0.5846,49.25 c 0.3215,27.0875 0.6355,49.2851 0.6978,49.3279 0.062,0.043 13.8382,-0.221 30.6132,-0.5863 28.0392,-0.6105 31.0214,-0.8453 36.9618,-2.9098 15.3807,-5.3454 24.1286,-13.6624 33.1238,-31.4924 3.9396,-7.8089 4.9738,-9.1352 7.3412,-9.4146 2.28,-0.2691 2.6553,-0.01 2.1738,1.5 -0.3201,1.0038 -4.7994,13.5252 -9.9541,27.8252 l -9.3721,26 -70.1372,0.2568 c -42.4834,0.1555 -70.1372,-0.108 -70.1372,-0.6683 z m 399,-0.01 c 0,-0.505 -0.2731,-1.63 -0.607,-2.5 -0.4997,-1.3023 0.2127,-1.5818 4.0321,-1.5818 8.5906,0 16.1002,-4.77 19.679,-12.5 1.7638,-3.8095 1.853,-8.8425 1.8739,-105.6874 l 0.022,-101.6875 -32.75,0.5414 c -30.091,0.4974 -33.1004,0.7052 -37.066,2.5586 -6.1737,2.8855 -9.4964,8.3169 -10.0085,16.3604 -0.333,5.2289 -0.7514,6.4625 -2.3654,6.9748 -1.0784,0.3423 -2.1019,0.4687 -2.2743,0.281 -0.1723,-0.1877 -0.6401,-10.3253 -1.0393,-22.528 l -0.7259,-22.1866 4.8647,1.4698 c 15.4304,4.662 20.054,4.9035 93.8647,4.9035 73.9263,0 77.1122,-0.1684 92.8661,-4.9097 l 4.6339,-1.3946 v 21.7952 c 0,18.9518 -0.2064,21.8743 -1.5818,22.4021 -2.8942,1.1106 -3.2171,0.6479 -3.9383,-5.643 -0.9331,-8.1392 -3.5415,-13.1003 -8.6747,-16.4989 l -4.1553,-2.7511 -33.8249,-0.2878 -33.825,-0.2879 v 101.07 c 0,89.1117 0.1838,101.5098 1.553,104.7878 3.2122,7.6896 11.1168,13.1537 19.09,13.1959 3.9245,0.021 5.357,1.1182 5.357,4.1038 0,0.5413 -15.3935,0.9182 -37.5,0.9182 -22.1065,0 -37.5,-0.3769 -37.5,-0.9182 z m 113,-1.4419 c 0,-2.1179 0.5503,-2.4169 5.3627,-2.9136 9.5637,-0.987 20.3947,-8.5265 24.9418,-17.3619 1.7166,-3.3356 78.156,-184.2683 83.8038,-198.3644 2.0935,-5.225 4.3523,-11.6051 5.0196,-14.178 0.8469,-3.2654 1.828,-4.8387 3.249,-5.2103 1.1197,-0.2928 2.1077,-0.4377 2.1955,-0.322 0.088,0.1156 20.3004,48.3603 44.9168,107.2103 24.6163,58.85 45.6326,108.7303 46.7028,110.8452 4.5217,8.9356 14.4752,15.9796 24.4674,17.3153 2.6623,0.3559 5.1712,1.1404 5.5753,1.7433 2.3599,3.5212 1.5729,3.5962 -37.7347,3.5962 -22.7138,0 -38.5,-0.3765 -38.5,-0.9182 0,-0.505 -0.2731,-1.63 -0.607,-2.5 -0.4853,-1.2647 0.1261,-1.5818 3.0497,-1.5818 7.6867,0 13.5573,-5.462 13.5573,-12.6138 0,-3.6101 -10.5056,-33.6942 -21.5239,-61.6362 -0.6427,-1.6299 -3.7284,-1.75 -44.9745,-1.75 h -44.2844 l -1.7009,4.25 c -11.0029,27.4931 -21.5155,56.2961 -21.5126,58.941 0,3.8442 2.966,9.1872 5.9893,10.8053 1.1551,0.6181 3.9916,1.4451 6.3035,1.8378 3.3137,0.5628 4.2711,1.1851 4.5231,2.9399 l 0.3195,2.226 h -34.5695 -34.5696 z m 158.7479,-91.8899 c -29.4666,-79.0298 -38.2476,-101.6421 -38.8579,-100.064 -0.3859,0.9977 -7.7655,19.814 -16.3993,41.814 -8.6337,22 -17.4172,44.3875 -19.5188,49.75 l -3.8211,9.75 h 39.5316 c 31.2072,0 39.4334,-0.2632 39.0655,-1.25 z"
       id="path1" />
  </g>
</svg>
